<svg id="svg" version="1.1" xmlns="http://www.w3.org/2000/svg" xmlns:xlink="http://www.w3.org/1999/xlink" width="400" height="400" viewBox="0, 0, 400,400"><g id="svgg"><path id="path0" d="M0.000 200.000 L 0.000 400.000 200.000 400.000 L 400.000 400.000 400.000 200.000 L 400.000 0.000 200.000 0.000 L 0.000 0.000 0.000 200.000 M285.543 98.531 C 285.823 98.869,286.022 102.029,286.091 107.231 L 286.200 115.400 293.059 115.509 C 298.175 115.591,300.030 115.754,300.360 116.151 C 300.680 116.538,300.774 142.001,300.701 208.842 L 300.600 301.000 207.800 301.000 L 115.000 301.000 114.891 293.708 L 114.782 286.416 106.291 286.308 L 97.800 286.200 97.691 193.000 C 97.631 141.740,97.679 99.395,97.798 98.900 L 98.015 98.000 191.559 98.000 C 268.795 98.000,285.179 98.093,285.543 98.531 M101.299 192.299 L 101.400 282.600 191.600 282.600 L 281.800 282.600 281.800 192.400 L 281.800 102.200 191.499 102.099 L 101.198 101.998 101.299 192.299 M165.655 149.513 C 167.555 149.739,169.478 150.121,169.929 150.362 C 170.379 150.603,171.199 150.800,171.750 150.800 C 172.302 150.800,172.864 150.980,173.000 151.200 C 173.136 151.420,173.520 151.600,173.854 151.600 C 174.901 151.600,179.780 155.007,181.070 156.639 C 185.141 161.787,185.200 162.212,185.200 186.475 C 185.200 207.281,185.409 210.514,186.866 212.278 C 188.477 214.227,187.415 214.593,179.800 214.714 C 170.459 214.861,169.600 214.535,169.600 210.843 C 169.600 208.986,169.009 209.021,166.550 211.023 C 164.170 212.962,160.249 214.990,158.200 215.344 C 157.540 215.458,156.190 215.734,155.200 215.958 C 152.893 216.480,146.332 216.484,144.000 215.964 C 143.010 215.744,141.535 215.418,140.723 215.240 C 134.932 213.970,129.494 209.153,127.358 203.400 C 125.857 199.359,126.217 191.322,128.030 188.400 C 128.234 188.070,128.586 187.371,128.812 186.846 C 130.073 183.909,136.012 179.756,141.200 178.182 C 145.439 176.896,145.868 176.800,147.382 176.800 C 148.221 176.800,149.558 176.618,150.354 176.397 C 151.149 176.175,153.960 175.819,156.600 175.607 C 165.320 174.905,167.255 174.131,168.385 170.891 C 170.208 165.667,165.928 162.179,157.800 162.267 C 150.483 162.346,147.069 164.479,146.158 169.540 C 145.709 172.035,145.834 172.000,137.365 172.000 C 129.168 172.000,128.109 171.737,129.222 169.978 C 129.423 169.660,129.592 168.680,129.596 167.800 C 129.601 166.920,129.874 165.684,130.202 165.054 C 130.531 164.424,130.800 163.676,130.800 163.391 C 130.800 159.777,140.686 150.830,144.719 150.794 C 145.094 150.791,146.120 150.529,147.000 150.212 C 147.880 149.895,149.500 149.609,150.600 149.578 C 151.700 149.546,153.050 149.371,153.600 149.187 C 154.808 148.786,160.914 148.951,165.655 149.513 M167.830 185.552 C 167.552 186.001,162.472 187.119,159.600 187.363 C 147.633 188.382,143.589 190.576,143.602 196.046 C 143.609 199.117,145.953 202.432,148.517 202.997 C 160.425 205.625,168.800 199.448,168.800 188.038 C 168.800 185.489,168.439 184.565,167.830 185.552 M256.762 222.554 C 257.075 222.931,257.186 225.004,257.111 229.029 L 257.000 234.950 255.714 235.283 C 254.051 235.713,196.573 235.506,196.133 235.068 C 195.426 234.363,195.485 223.372,196.200 222.657 C 197.119 221.738,256.002 221.638,256.762 222.554 " stroke="none" fill="#fbfbfb" fill-rule="evenodd"></path><path id="path1" d="M285.101 201.100 L 285.000 285.800 200.467 286.000 L 115.934 286.200 115.938 293.092 C 115.941 296.882,116.056 300.167,116.195 300.392 C 116.587 301.026,298.886 300.954,299.520 300.320 C 300.029 299.811,300.264 118.353,299.757 117.033 C 299.548 116.488,298.515 116.400,292.358 116.400 L 285.202 116.400 285.101 201.100 " stroke="none" fill="#fb6b2c" fill-rule="evenodd"></path><path id="path2" d="M98.400 192.353 L 98.400 285.506 115.700 285.777 C 125.215 285.927,167.200 285.993,209.000 285.924 L 285.000 285.800 285.124 209.400 C 285.193 167.380,285.127 125.395,284.977 116.100 L 284.706 99.200 191.553 99.200 L 98.400 99.200 98.400 192.353 M282.720 101.280 C 283.550 102.110,283.403 282.540,282.571 283.371 C 281.609 284.334,101.591 284.334,100.629 283.371 C 99.603 282.346,99.674 101.830,100.700 101.232 C 101.786 100.599,282.087 100.647,282.720 101.280 M148.200 151.008 C 137.467 153.368,131.740 159.207,130.271 169.287 C 129.995 171.186,130.421 171.280,138.561 171.118 L 144.521 171.000 145.296 168.612 C 147.102 163.046,150.292 161.200,158.105 161.200 C 166.234 161.200,170.157 164.237,169.474 170.002 C 168.976 174.213,166.360 175.767,158.344 176.618 C 144.372 178.100,141.899 178.613,136.912 181.064 C 127.832 185.527,124.582 196.017,129.319 205.578 C 134.885 216.814,157.901 218.783,167.375 208.834 C 169.363 206.746,170.034 207.110,170.631 210.600 C 171.169 213.740,170.784 213.600,178.861 213.600 L 186.093 213.600 185.803 212.700 C 184.020 207.167,184.047 207.577,184.018 186.200 C 183.983 160.331,183.561 158.468,176.761 154.175 C 171.369 150.772,156.681 149.143,148.200 151.008 M169.517 184.788 C 170.175 186.565,169.342 193.783,168.182 196.369 C 163.117 207.655,142.636 207.573,142.654 196.267 C 142.664 190.092,145.784 187.932,156.600 186.613 C 162.567 185.886,167.491 184.900,167.821 184.367 C 168.218 183.724,169.215 183.972,169.517 184.788 M196.975 223.722 C 196.864 224.009,196.825 226.484,196.887 229.222 L 197.000 234.200 226.400 234.200 L 255.800 234.200 255.911 228.700 L 256.023 223.200 226.599 223.200 C 202.762 223.200,197.137 223.299,196.975 223.722 " stroke="none" fill="#0c0b0b" fill-rule="evenodd"></path><path id="path3" d="M98.014 99.174 C 97.467 100.196,97.445 284.735,97.991 285.600 C 98.307 286.100,99.848 286.213,107.197 286.281 C 112.699 286.331,115.935 286.218,115.788 285.981 C 115.651 285.759,111.970 285.600,106.976 285.600 L 98.400 285.600 98.400 192.400 L 98.400 99.200 191.592 99.200 L 284.784 99.200 284.892 107.667 C 284.958 112.858,285.155 116.186,285.400 116.267 C 285.966 116.456,285.709 99.613,285.135 98.922 C 284.309 97.927,98.548 98.177,98.014 99.174 M100.700 101.232 C 99.674 101.830,99.603 282.346,100.629 283.371 C 101.591 284.334,281.609 284.334,282.571 283.371 C 283.403 282.540,283.550 102.110,282.720 101.280 C 282.087 100.647,101.786 100.599,100.700 101.232 M282.301 192.176 C 282.381 264.213,282.300 282.616,281.901 282.870 C 281.323 283.237,102.387 283.323,101.433 282.957 C 100.772 282.704,100.408 102.525,101.068 101.866 C 101.215 101.719,142.030 101.644,191.768 101.699 L 282.200 101.800 282.301 192.176 M151.000 149.879 C 139.194 150.943,130.379 158.945,129.911 169.022 L 129.800 171.400 137.244 171.509 C 145.616 171.631,145.076 171.823,146.129 168.347 C 147.371 164.247,149.527 162.694,154.928 162.009 C 163.620 160.907,168.800 163.541,168.800 169.061 C 168.800 174.056,166.182 175.341,153.800 176.427 C 143.230 177.353,137.231 179.227,132.549 183.063 C 125.032 189.223,124.563 202.563,131.615 209.615 C 139.871 217.871,158.364 218.190,166.969 210.223 C 169.513 207.868,169.978 208.025,169.995 211.246 C 169.998 211.821,170.373 212.766,170.829 213.346 L 171.658 214.400 179.005 214.400 C 187.365 214.400,187.204 214.472,185.942 211.295 C 185.041 209.030,185.026 208.708,184.796 186.600 C 184.542 162.137,184.586 162.596,182.099 158.628 C 177.639 151.514,166.773 148.457,151.000 149.879 M168.074 151.012 C 177.066 152.894,181.536 156.564,183.406 163.600 C 183.880 165.386,183.996 169.642,184.018 186.200 C 184.047 207.577,184.020 207.167,185.803 212.700 L 186.093 213.600 178.861 213.600 C 170.784 213.600,171.169 213.740,170.631 210.600 C 170.034 207.110,169.363 206.746,167.375 208.834 C 157.901 218.783,134.885 216.814,129.319 205.578 C 124.582 196.017,127.832 185.527,136.912 181.064 C 141.899 178.613,144.372 178.100,158.344 176.618 C 166.360 175.767,168.976 174.213,169.474 170.002 C 170.157 164.237,166.234 161.200,158.105 161.200 C 150.292 161.200,147.102 163.046,145.296 168.612 L 144.521 171.000 138.561 171.118 C 130.421 171.280,129.995 171.186,130.271 169.287 C 131.740 159.207,137.467 153.368,148.200 151.008 C 151.724 150.233,164.363 150.236,168.074 151.012 M167.821 184.367 C 167.491 184.900,162.567 185.886,156.600 186.613 C 145.784 187.932,142.664 190.092,142.654 196.267 C 142.636 207.573,163.117 207.655,168.182 196.369 C 170.348 191.542,170.025 180.800,167.821 184.367 M169.013 185.711 C 169.461 187.495,168.550 193.801,167.521 196.040 C 162.602 206.741,143.200 206.872,143.200 196.203 C 143.200 190.504,146.573 188.363,157.384 187.200 C 162.448 186.655,166.028 185.985,167.200 185.363 C 168.575 184.633,168.751 184.667,169.013 185.711 M196.700 222.832 C 195.885 223.307,195.646 232.991,196.414 234.426 C 196.926 235.384,255.370 235.670,256.320 234.720 C 256.646 234.394,256.800 232.498,256.800 228.800 C 256.800 225.102,256.646 223.206,256.320 222.880 C 255.691 222.251,197.778 222.204,196.700 222.832 M255.911 228.700 L 255.800 234.200 226.400 234.200 L 197.000 234.200 196.887 229.222 C 196.825 226.484,196.864 224.009,196.975 223.722 C 197.137 223.299,202.762 223.200,226.599 223.200 L 256.023 223.200 255.911 228.700 " stroke="none" fill="#8f8f8f" fill-rule="evenodd"></path><path id="path4" d="M97.843 98.633 C 97.468 99.609,97.578 99.880,98.032 99.100 C 98.580 98.160,284.363 97.992,285.143 98.931 C 285.424 99.270,285.622 102.481,285.692 107.831 L 285.800 116.200 292.583 116.310 C 297.395 116.388,299.456 116.562,299.676 116.910 C 300.229 117.779,300.073 299.767,299.520 300.320 C 298.851 300.989,116.585 301.022,116.171 300.353 C 116.019 300.108,115.929 297.070,115.969 293.604 C 116.046 287.131,115.790 285.986,114.271 286.006 C 113.925 286.011,113.930 286.095,114.290 286.324 C 114.641 286.546,114.812 288.685,114.890 293.818 L 115.000 301.000 207.800 301.000 L 300.600 301.000 300.701 208.842 C 300.774 142.001,300.680 116.538,300.360 116.151 C 300.030 115.754,298.175 115.591,293.059 115.509 L 286.200 115.400 286.091 107.231 C 286.022 102.029,285.823 98.869,285.543 98.531 C 284.812 97.651,98.181 97.752,97.843 98.633 M101.068 101.866 C 100.408 102.525,100.772 282.704,101.433 282.957 C 102.387 283.323,281.323 283.237,281.901 282.870 C 282.300 282.616,282.381 264.213,282.301 192.176 L 282.200 101.800 191.768 101.699 C 142.030 101.644,101.215 101.719,101.068 101.866 M281.800 192.400 L 281.800 282.600 191.600 282.600 L 101.400 282.600 101.299 192.299 L 101.198 101.998 191.499 102.099 L 281.800 102.200 281.800 192.400 M153.600 149.200 C 152.991 149.395,154.714 149.525,158.000 149.532 C 161.355 149.539,163.097 149.414,162.600 149.200 C 161.598 148.769,154.945 148.769,153.600 149.200 M147.300 150.048 C 146.585 150.254,146.000 150.527,146.000 150.655 C 146.000 150.782,146.495 150.746,147.100 150.574 C 147.705 150.403,149.190 150.140,150.400 149.990 L 152.600 149.718 150.600 149.695 C 149.500 149.682,148.015 149.841,147.300 150.048 M166.000 149.959 C 167.210 150.125,168.740 150.394,169.400 150.556 C 170.425 150.808,170.490 150.781,169.845 150.375 C 169.430 150.113,167.900 149.844,166.445 149.777 L 163.800 149.655 166.000 149.959 M142.300 151.647 C 140.266 152.677,140.399 152.942,142.500 152.048 C 143.435 151.650,144.470 151.220,144.800 151.094 C 145.222 150.931,145.163 150.867,144.600 150.875 C 144.160 150.882,143.125 151.229,142.300 151.647 M172.400 151.400 C 172.950 151.714,173.634 151.978,173.919 151.986 C 174.644 152.006,178.816 154.714,179.881 155.855 C 180.982 157.036,181.601 157.113,180.562 155.939 C 179.541 154.786,174.615 151.600,173.854 151.600 C 173.520 151.600,173.136 151.420,173.000 151.200 C 172.864 150.980,172.448 150.806,172.076 150.814 C 171.584 150.824,171.672 150.984,172.400 151.400 M134.812 156.827 C 133.000 158.716,130.435 162.968,130.854 163.388 C 130.956 163.490,131.550 162.499,132.174 161.187 C 132.797 159.874,134.193 157.900,135.276 156.800 C 136.358 155.700,137.134 154.800,137.000 154.800 C 136.865 154.800,135.880 155.712,134.812 156.827 M182.063 158.617 C 182.523 159.396,182.986 159.947,183.093 159.840 C 183.283 159.650,181.699 157.200,181.386 157.200 C 181.299 157.200,181.603 157.838,182.063 158.617 M183.206 160.420 C 183.209 160.519,183.488 161.320,183.824 162.200 L 184.437 163.800 184.211 162.413 C 184.034 161.325,183.180 159.631,183.206 160.420 M154.600 162.019 C 150.088 162.616,145.087 166.020,146.559 167.493 C 146.679 167.613,146.941 167.281,147.142 166.755 C 148.021 164.449,151.643 162.446,155.062 162.377 C 155.688 162.364,156.920 162.205,157.800 162.023 C 159.962 161.576,157.970 161.573,154.600 162.019 M161.200 162.357 C 162.190 162.531,163.540 162.803,164.200 162.962 C 165.190 163.200,165.274 163.171,164.680 162.794 C 164.284 162.543,162.934 162.271,161.680 162.190 C 159.509 162.048,159.486 162.056,161.200 162.357 M184.706 183.113 C 184.764 193.611,184.864 203.280,184.929 204.600 C 184.993 205.920,185.068 197.640,185.095 186.200 C 185.122 174.760,185.021 165.091,184.872 164.713 C 184.722 164.336,184.648 172.616,184.706 183.113 M129.990 165.426 C 129.776 165.990,129.623 167.025,129.650 167.726 C 129.697 168.923,129.718 168.903,129.992 167.400 C 130.153 166.520,130.419 165.485,130.585 165.100 C 130.750 164.715,130.772 164.400,130.633 164.400 C 130.494 164.400,130.205 164.862,129.990 165.426 M167.600 165.278 C 167.600 165.404,167.863 166.114,168.184 166.854 C 168.589 167.786,168.770 167.954,168.772 167.400 C 168.773 166.960,168.510 166.251,168.187 165.824 C 167.864 165.396,167.600 165.151,167.600 165.278 M145.776 169.386 C 145.365 171.579,145.165 171.628,137.148 171.509 L 129.800 171.400 129.664 170.435 C 129.564 169.726,129.438 169.614,129.192 170.014 C 129.004 170.316,129.027 170.876,129.242 171.278 C 129.733 172.196,144.784 172.401,145.499 171.500 C 145.935 170.950,146.557 168.000,146.236 168.000 C 146.126 168.000,145.919 168.624,145.776 169.386 M166.418 173.450 C 164.536 174.786,164.371 175.018,165.829 174.277 C 166.505 173.934,167.292 173.371,167.578 173.026 C 168.260 172.205,168.077 172.272,166.418 173.450 M161.600 175.221 C 161.170 175.514,161.454 175.554,162.600 175.362 C 164.584 175.030,164.904 174.798,163.367 174.806 C 162.725 174.809,161.930 174.996,161.600 175.221 M152.701 175.989 C 151.217 176.140,149.867 176.407,149.701 176.582 C 149.536 176.757,150.480 176.763,151.800 176.596 C 153.120 176.429,155.730 176.163,157.600 176.005 L 161.000 175.718 158.200 175.716 C 156.660 175.715,154.186 175.837,152.701 175.989 M144.800 177.212 C 144.381 177.491,144.742 177.533,146.000 177.350 C 148.241 177.025,148.560 176.798,146.767 176.806 C 146.015 176.809,145.130 176.992,144.800 177.212 M141.000 178.222 C 139.725 178.845,140.096 178.806,143.000 178.011 C 144.104 177.708,144.120 177.680,143.200 177.659 C 142.650 177.646,141.660 177.900,141.000 178.222 M136.298 180.068 C 133.974 181.269,128.800 185.960,128.800 186.867 C 128.800 187.137,129.324 186.645,129.964 185.774 C 131.520 183.660,133.763 181.905,137.069 180.220 C 138.571 179.454,139.530 178.839,139.200 178.853 C 138.870 178.868,137.564 179.414,136.298 180.068 M167.200 185.368 C 166.650 185.663,164.850 186.122,163.200 186.388 C 158.894 187.083,158.828 187.102,160.668 187.154 C 162.620 187.208,167.054 186.146,168.189 185.352 C 169.192 184.650,168.518 184.662,167.200 185.368 M168.909 187.200 C 168.909 188.190,168.987 188.595,169.082 188.100 C 169.178 187.605,169.178 186.795,169.082 186.300 C 168.987 185.805,168.909 186.210,168.909 187.200 M152.529 187.812 C 147.577 188.718,144.910 190.283,143.803 192.932 C 142.454 196.161,143.476 200.229,146.091 202.038 C 147.396 202.941,147.396 202.939,145.918 201.470 C 140.152 195.736,144.194 189.303,154.363 188.028 C 156.213 187.796,157.818 187.515,157.930 187.403 C 158.278 187.055,155.529 187.263,152.529 187.812 M127.067 190.267 C 126.920 190.413,126.811 190.908,126.825 191.367 C 126.849 192.133,126.882 192.123,127.234 191.242 C 127.626 190.263,127.544 189.789,127.067 190.267 M168.033 193.433 C 167.422 195.860,167.735 196.174,168.400 193.800 C 168.681 192.797,168.819 191.885,168.707 191.773 C 168.594 191.661,168.291 192.408,168.033 193.433 M126.302 195.116 C 126.190 195.950,126.231 197.345,126.392 198.216 C 126.634 199.521,126.692 199.253,126.721 196.700 C 126.759 193.307,126.617 192.769,126.302 195.116 M164.700 199.431 C 162.536 201.496,162.251 202.045,163.984 200.811 C 164.974 200.107,167.139 197.579,166.727 197.609 C 166.657 197.614,165.745 198.434,164.700 199.431 M160.800 202.200 C 160.250 202.514,159.440 202.781,159.000 202.792 C 158.560 202.803,157.930 203.000,157.600 203.230 C 156.605 203.924,159.603 203.207,161.200 202.369 C 161.970 201.966,162.420 201.634,162.200 201.632 C 161.980 201.630,161.350 201.886,160.800 202.200 M148.800 203.367 C 149.672 203.723,151.481 203.924,153.600 203.899 L 157.000 203.860 153.400 203.577 C 151.420 203.422,149.260 203.182,148.600 203.044 C 147.496 202.814,147.512 202.840,148.800 203.367 M127.632 204.024 C 127.614 204.366,127.880 204.996,128.222 205.424 C 128.834 206.188,128.838 206.187,128.476 205.400 C 128.274 204.960,128.008 204.330,127.886 204.000 C 127.693 203.482,127.659 203.485,127.632 204.024 M128.800 206.655 C 128.800 207.775,134.656 213.200,135.865 213.200 C 136.041 213.200,135.469 212.719,134.593 212.130 C 132.814 210.935,130.501 208.712,129.476 207.211 C 129.104 206.667,128.800 206.417,128.800 206.655 M185.236 208.285 C 185.216 208.772,185.572 210.164,186.027 211.380 C 187.181 214.465,187.332 214.400,179.005 214.400 L 171.658 214.400 170.829 213.346 C 170.373 212.766,169.998 211.821,169.995 211.246 C 169.978 208.091,169.491 207.883,167.167 210.037 C 165.022 212.025,162.775 213.381,159.935 214.403 C 158.761 214.825,158.173 215.178,158.629 215.186 C 159.941 215.208,164.095 213.023,166.566 211.011 C 169.009 209.021,169.600 208.988,169.600 210.843 C 169.600 214.535,170.460 214.861,179.795 214.714 C 187.625 214.590,188.007 214.455,186.822 212.241 C 186.570 211.771,186.119 210.490,185.818 209.393 C 185.518 208.297,185.255 207.798,185.236 208.285 M136.400 213.473 C 136.400 213.788,140.159 215.228,140.688 215.116 C 140.989 215.052,140.148 214.622,138.818 214.159 C 137.488 213.697,136.400 213.388,136.400 213.473 M142.600 215.692 C 143.158 216.046,145.273 216.200,149.600 216.200 C 153.927 216.200,156.042 216.046,156.600 215.692 C 157.290 215.253,157.180 215.226,155.800 215.492 C 154.920 215.661,152.130 215.800,149.600 215.800 C 147.070 215.800,144.280 215.661,143.400 215.492 C 142.020 215.226,141.910 215.253,142.600 215.692 M196.229 222.629 C 195.171 223.687,195.383 235.200,196.461 235.200 C 196.668 235.200,196.648 234.863,196.414 234.426 C 195.592 232.891,195.890 223.287,196.774 222.814 C 197.956 222.181,255.685 222.245,256.320 222.880 C 257.003 223.563,256.986 234.043,256.300 234.770 C 255.896 235.198,255.916 235.265,256.400 235.117 C 257.178 234.880,257.507 223.452,256.762 222.554 C 256.022 221.663,197.122 221.735,196.229 222.629 M211.729 235.500 C 219.831 235.560,232.971 235.560,240.929 235.500 C 248.888 235.439,242.260 235.390,226.200 235.390 C 210.140 235.390,203.628 235.439,211.729 235.500 " stroke="none" fill="#ecc4b4" fill-rule="evenodd"></path></g></svg>